<svg width="16" height="20" viewBox="0 0 16 20" fill="none" xmlns="http://www.w3.org/2000/svg">
<path d="M5.65281 17.5L5.90281 17.8333C7.02781 19.3333 9.27781 19.3333 10.4028 17.8333L10.6528 17.5M1.6385 12.958L1.72463 13.1355C2.27777 14.2759 3.43379 15 4.70121 15H11.5519C12.638 15 13.6488 14.4451 14.2319 13.5289C15.0551 12.2355 14.8371 10.5387 13.7137 9.49543L13.6771 9.46146C12.9144 8.75312 12.5389 7.72119 12.668 6.68831L12.7218 6.25753C13.0265 3.81982 11.1258 1.66666 8.66906 1.66666H7.24997C4.79627 1.66666 2.89782 3.81719 3.20216 6.25194L3.26829 6.78098C3.39008 7.75525 3.0342 8.72841 2.31263 9.39426C1.32703 10.3038 1.0532 11.7513 1.6385 12.958Z" stroke="#2D264B" stroke-width="1.5" stroke-linecap="round"/>
</svg>
